<?xml version="1.0" encoding="utf-8"?>
<!-- Generator: Adobe Illustrator 22.1.0, SVG Export Plug-In . SVG Version: 6.00 Build 0)  -->
<svg version="1.1" xmlns="http://www.w3.org/2000/svg" xmlns:xlink="http://www.w3.org/1999/xlink" x="0px" y="0px"
	 viewBox="0 0 395 199" style="enable-background:new 0 0 395 199;" xml:space="preserve">
<style type="text/css">
	.st0{display:none;}
	.st1{fill:#CAE4F4;}
	.st2{fill:#FBD76A;}
	.st3{fill:none;stroke:#FFFFFF;stroke-width:6;stroke-linecap:round;stroke-linejoin:round;stroke-miterlimit:10;}
	.st4{fill:#FFFFFF;}
	.st5{fill:none;}
</style>
<g id="Layer_2" class="st0">
</g>
<g id="Layer_1">
	<g id="XMLID_1_">
		<g>
			<path class="st1" d="M179.1,163.7c3.1,10.8,1.3,23-12.4,23c-3.1,0-10.3,0-19.6,0.1v-0.5l-6-21.1c5.6-12.4,10.6-28,14.5-41.4
				l12.1,0l0.1-0.1C172.8,141.2,177.4,157.9,179.1,163.7z"/>
			<path class="st2" d="M165.5,33.5c12.1,6.3,14.7,19.8,11.7,35.7l-0.4-0.2c-6.3-17.6-28.8-33.2-43.2-26.9
				C141.2,32,155.4,28.3,165.5,33.5z"/>
			<path class="st1" d="M167.8,123.7l-0.1,0.1l-12.1,0c2.5-8.6,4.6-16.2,6.1-21.5C163.7,109.1,165.8,116.5,167.8,123.7z"/>
			<path class="st1" d="M147.1,186.3v0.5c-6.8,0-14.6,0.1-22.9,0.1c5.9-1.4,11.6-10.1,16.8-21.6L147.1,186.3z"/>
		</g>
		<g>
			<polyline class="st3" points="167.7,123.8 155.6,123.8 130.7,123.7 35.7,123.5 			"/>
			<polyline class="st3" points="130.7,123.8 130.7,123.7 120.2,86.9 			"/>
			<line class="st3" x1="77.7" y1="123.3" x2="67.1" y2="86.4"/>
			<polyline class="st3" points="147.1,186.3 141.1,165.2 136.6,149.3 			"/>
			<line class="st3" x1="93.5" y1="186.6" x2="83" y2="149.7"/>
			<path class="st3" d="M129,52c0.9-3.8,2.5-7.1,4.6-9.9c7.6-10.1,21.8-13.8,31.9-8.6c12.1,6.3,14.7,19.8,11.7,35.7
				c-0.2,1.1-0.4,2.2-0.7,3.3"/>
			<line class="st3" x1="123.1" y1="40.2" x2="117" y2="33.8"/>
			<line class="st3" x1="144.1" y1="19.6" x2="140.5" y2="10.5"/>
			<line class="st3" x1="171.8" y1="22.7" x2="177.5" y2="14.5"/>
			<line class="st3" x1="198.5" y1="43.5" x2="190.1" y2="46.1"/>
			<line class="st3" x1="194.2" y1="73" x2="186.7" y2="72.8"/>
			<path class="st3" d="M17.6,93.7C13.7,77.5,14.8,69,35.5,69c20.8,0,95.8,0,105.1,0c8.4,0,12.9,7.2,15.5,14.3
				c1.6,5.1,3.5,11.7,5.6,18.9c2,6.8,4.1,14.2,6.1,21.4c5,17.5,9.6,34.1,11.3,40c3.1,10.8,1.3,23-12.4,23c-3.1,0-10.3,0-19.6,0.1
				c-6.8,0-14.6,0.1-22.9,0.1c-29.9,0.1-64.7,0.2-69.3-0.2c-7.5-0.7-13.7-10.8-17.3-23"/>
			<path class="st3" d="M17.6,93.6c0,0.1,0.1,0.3,0.1,0.5c0-0.1,0-0.2-0.1-0.3"/>
			<path class="st3" d="M17.4,93C17.4,93,17.4,93,17.4,93C17.4,93.1,17.4,93.1,17.4,93c0,0,0,0.1,0,0.2"/>
			<path class="st3" d="M17.5,93.2c0-0.1,0-0.1,0-0.1"/>
			<path class="st3" d="M17.5,93.2c0,0.1,0.1,0.3,0.1,0.4"/>
			<path class="st3" d="M15.5,189.5l16.8-40.9c0,0-12.9-48-14.7-54.8c0-0.1,0-0.1,0-0.2c0,0,0,0,0,0"/>
		</g>
	</g>
	<g>
		<path class="st4" d="M204.4,139.9h22.8c1.2,0.6,1.2,1.2,0,1.7h-10.4v7.5h15.6c1,0.6,1,1.2,0,1.7h-15.6v9c0.2,3.1-1.4,4.5-4.9,4.3
			c-1,0.2-2.9-0.4-5.8-1.7c-0.6-1-0.3-1.5,0.9-1.7c2.7,1.3,4.3,1.9,4.9,1.7c2.3,0.2,3.4-0.7,3.2-2.6v-9h-15.6c-1-0.6-1-1.2,0-1.7
			h15.6v-7.5h-10.7C203.5,141.1,203.5,140.5,204.4,139.9z M213.7,130.7c0-1,0.5-1.3,1.4-0.9c0.8,1.4,1.3,2.5,1.7,3.5h13.3
			c2.5,0,2.8,2.5,0.9,7.5c-1,0.6-1.5,0.4-1.7-0.6c1.7-3.5,1.6-5.2-0.3-5.2h-25.7c-1.2,0-1.7,0.6-1.7,1.7v4.6c-0.6,0.8-1.2,0.8-1.7,0
			v-5.2c0-1.9,1-2.9,2.9-2.9h12.1C214.5,132.3,214.1,131.4,213.7,130.7z"/>
		<path class="st4" d="M237.6,132.7h13.9c0.8,0.6,0.8,1.2,0,1.7h-1.7v28.9c-0.6,1-1.2,1-1.7,0v-6.1c-4.2,1.5-7.7,2.8-10.4,3.8
			c-1.2-0.2-1.4-0.8-0.6-1.7l2.3-0.9v-24h-1.7C236.9,133.9,236.9,133.3,237.6,132.7z M248,134.4h-6.9v5.8h6.9V134.4z M248,141.9
			h-6.9v6.4h6.9V141.9z M248,150h-6.9v7.8l6.9-2.6V150z M252.1,138.5h10.7c1.3-2.7,2.5-5.5,3.5-8.4c1-1,1.5-0.8,1.7,0.6
			c-0.8,3.1-1.8,5.7-3.2,7.8h4c0.8,0.6,0.8,1.2,0,1.7h-6.9v7.5h8.7c0.8,0.6,0.8,1.2,0,1.7h-7.5c1.5,4.4,4.3,8.6,8.4,12.4
			c0.4,1.2,0,1.6-1.2,1.4c-3.7-3.3-6.6-7.6-9-13c-2.5,5.6-5.8,9.8-9.8,12.7c-1.2,0-1.4-0.6-0.6-1.7c3.7-3.3,6.6-7.2,8.7-11.9h-8.7
			c-0.8-0.6-0.8-1.2,0-1.7h9.3v-7.5h-8.1C251.3,139.6,251.3,139.1,252.1,138.5z M254.1,130.7c0-1.2,0.5-1.5,1.4-1.2
			c1,1.4,2.3,3.6,4,6.6c0,1.2-0.6,1.4-1.7,0.9C256.1,133.9,254.9,131.8,254.1,130.7z"/>
		<path class="st4" d="M276,142.2h5.2c-0.6-1.7-1.2-3.2-1.7-4.3c0-1,0.5-1.3,1.4-0.9c1,1.7,1.7,3.5,2.3,5.2h3.2
			c1.5-2.3,2.5-4,2.9-5.2c0.8-0.4,1.3-0.1,1.4,0.9c-0.8,1.7-1.5,3.2-2.3,4.3h6.1c0.8,0.6,0.8,1.2,0,1.7h-8.7v4h6.9
			c0.8,0.6,0.8,1.2,0,1.7h-6.9v11.6c0.4,2.5-1.9,3.1-6.9,1.7c-0.4-1-0.1-1.5,0.9-1.7c3.3,1.2,4.7,1.1,4.3-0.3v-11.3H276
			c-0.8-0.6-0.8-1.2,0-1.7h8.1v-4H276C275.1,143.4,275.1,142.8,276,142.2z M284.4,133.9c-0.2-1.3-0.5-2.3-0.9-2.9
			c0.2-1.2,0.8-1.4,1.7-0.9c0.4,0.8,0.8,2,1.2,3.8h6.9c0.8,0.6,0.8,1.2,0,1.7h-16.8c-0.8-0.6-0.8-1.2,0-1.7H284.4z M280.4,152.1
			c0.8-0.6,1.3-0.4,1.7,0.6c-1.2,2.7-2.6,5.4-4.3,8.1c-1.4,0.4-1.8,0-1.4-1.2C277.9,157.3,279.2,154.8,280.4,152.1z M287.3,152.6
			c-0.2-1,0.3-1.3,1.4-0.9c1.2,2.3,2.2,4.9,3.2,7.8c-0.4,1-1,1.2-1.7,0.6C289.4,157.7,288.5,155.1,287.3,152.6z M307.5,131.3
			c1,0.2,1.2,0.8,0.6,1.7c-2.9,1-6.1,1.5-9.5,1.7c-0.8,0-1.2,0.4-1.2,1.2v6.4H309c0.8,0.6,0.8,1.2,0,1.7h-3.5v19.7
			c-0.6,0.8-1.2,0.8-1.7,0V144h-6.4v4.9c0.2,6.4-1.2,11.3-4,14.7c-1.2,0.4-1.6,0-1.4-1.2c2.7-3.1,3.9-7.8,3.8-14.2v-13
			c0-1.5,0.9-2.3,2.6-2.3C301,133,304.1,132.4,307.5,131.3z"/>
		<path class="st4" d="M319.3,130.4c1.2-1,1.7-0.8,1.7,0.6c-1,1.9-2.2,4.2-3.8,6.9l10.7-0.6c-0.8-1.3-1.7-2.7-2.9-4
			c0-1.2,0.5-1.5,1.4-1.2c2.3,3.3,4,5.9,5.2,7.8c0.2,1.2-0.3,1.5-1.4,1.2c-0.4-0.8-0.9-1.5-1.4-2.3l-12.1,0.9
			c-1.9,0.2-2.5-0.4-1.7-1.7C316.9,135,318.4,132.5,319.3,130.4z M319.1,141.9h7.5c2.3,0,3.4,1.2,3.2,3.5v16.2
			c0.2,2.5-2.4,2.9-7.8,1.2c-0.8-1-0.5-1.5,0.9-1.7c3.9,1.7,5.6,1.7,5.2,0v-5.8h-11v8.4c-0.6,1-1.2,1-1.7,0v-17.9
			C315.3,143.2,316.5,141.9,319.1,141.9z M326.3,143.7h-7.2c-1.4,0-2,0.8-2,2.3v1.7h11v-2C328.2,144.4,327.6,143.7,326.3,143.7z
			 M328,149.5h-11v4h11V149.5z M334.4,131v6.1c3.9-1,7.3-2.4,10.4-4.3c1.2,0.2,1.3,0.8,0.6,1.7c-3.3,1.9-6.9,3.4-11,4.3v4.3
			c0,1.4,0.7,1.9,2,1.7h6.4c1.7,0.4,2.6-1.2,2.6-4.6c0.6-0.8,1.2-0.8,1.7,0c0.2,4.4-1.2,6.6-4,6.4h-6.6c-2.5,0.2-3.8-0.9-3.8-3.2
			V131C333.2,130,333.8,130,334.4,131z M332.6,148.3c0.6-1,1.2-1,1.7,0v4.9c3.9-0.6,7.3-1.7,10.4-3.5c1.2,0.2,1.3,0.8,0.6,1.7
			c-3.1,1.5-6.7,2.7-11,3.5v5.2c0,1.5,0.8,2.2,2.3,2h6.1c1.9,0.2,2.8-1.5,2.6-5.2c0.6-0.8,1.2-0.8,1.7,0c0.2,4.8-1.2,7.1-4,6.9h-6.4
			c-2.7,0.2-4-1-4-3.5V148.3z"/>
		<path class="st4" d="M352.3,140.5c2.3,1.4,4.6,2.8,6.9,4.3c0.6,1,0.3,1.5-0.9,1.7c-2.3-1.5-4.6-3-6.9-4.3
			C350.8,141.1,351.1,140.5,352.3,140.5z M357.5,148.6c0.8-0.8,1.3-0.6,1.7,0.6c-1,4.4-2.8,8.9-5.5,13.3c-1.2,0.4-1.6,0-1.4-1.2
			C354.6,157.5,356.3,153.2,357.5,148.6z M353.4,131.3c1.9,1,4,2.3,6.4,4c0.4,1,0,1.4-1.2,1.4c-2.3-1.5-4.2-2.8-5.8-3.8
			C352.1,132,352.3,131.4,353.4,131.3z M365,131.3h19.7c0.8,0.6,0.8,1.2,0,1.7h-9l-1.4,3.5h6.4c2.1,0,3.1,1,2.9,2.9v9.8
			c0.2,2.1-0.8,3.1-2.9,2.9h-5.2v9c0.2,1.9-0.9,3-3.2,3.2c-1.4-0.2-2.6-0.5-3.8-0.9c-0.6-1-0.4-1.5,0.6-1.7c3.3,1.3,4.8,1.1,4.6-0.9
			v-8.7H369c-1.9,0.2-2.9-0.8-2.9-2.9v-9.8c0-1.9,1-2.9,2.9-2.9h3.5l1.4-3.5h-8.4c-1.2,0-1.7,0.6-1.7,1.7v13
			c0.4,6.2-1.2,11.5-4.6,15.9c-1.4,0.4-1.8,0-1.4-1.2c3.1-4.2,4.5-9.3,4.3-15v-13.3C362.1,132.2,363,131.3,365,131.3z M369.3,153.5
			c1-0.4,1.4,0,1.4,1.2c-1.9,3.3-4.1,6-6.6,8.1c-1.2,0-1.4-0.5-0.9-1.4C365.7,159,367.8,156.4,369.3,153.5z M380,138.2h-10.4
			c-1.2,0-1.7,0.6-1.7,1.7v3.5h13.9v-3.5C381.9,138.8,381.4,138.2,380,138.2z M381.7,145.1h-13.9v3.2c0,1.5,0.6,2.2,1.7,2H380
			c1.3,0.2,1.9-0.4,1.7-1.7V145.1z M379.4,153.8c2.3,2.9,4.2,5.6,5.8,8.1c0,1-0.5,1.3-1.4,0.9c-1.9-2.7-3.9-5.3-5.8-7.8
			C378,153.8,378.5,153.4,379.4,153.8z"/>
	</g>
	<g>
		<rect x="5.5" y="55.5" class="st5" width="165.5" height="17.5"/>
		<path class="st4" d="M6.5,55.7h0.8v4.8c0,0.6,0,0.9,0,1.1c0,0.3,0.1,0.6,0.3,0.8c0.1,0.2,0.4,0.4,0.7,0.5S8.8,63,9.1,63
			c0.3,0,0.5-0.1,0.8-0.2s0.4-0.3,0.6-0.5s0.3-0.4,0.4-0.7c0.1-0.2,0.1-0.6,0.1-1.2v-4.8h0.8v4.8c0,0.7-0.1,1.3-0.2,1.7
			c-0.1,0.4-0.4,0.8-0.8,1.1c-0.4,0.3-0.9,0.5-1.5,0.5c-0.6,0-1.2-0.2-1.6-0.5s-0.8-0.7-0.9-1.2c-0.1-0.3-0.1-0.9-0.1-1.7V55.7z"/>
		<path class="st4" d="M13.7,63.6v-5.5h0.1l3.7,4.2v-4.2h0.5v5.5h-0.1l-3.7-4.2v4.2H13.7z"/>
		<path class="st4" d="M19.6,58.1h0.6v5.5h-0.6V58.1z"/>
		<path class="st4" d="M24.2,57.9c0.8,0,1.5,0.3,2.1,0.8c0.6,0.6,0.8,1.2,0.8,2.1c0,0.8-0.3,1.5-0.8,2.1c-0.6,0.6-1.2,0.8-2.1,0.8
			c-0.8,0-1.5-0.3-2.1-0.8c-0.6-0.6-0.8-1.2-0.8-2c0-0.5,0.1-1,0.4-1.5c0.3-0.5,0.6-0.8,1.1-1.1S23.7,57.9,24.2,57.9z M24.3,58.5
			c-0.4,0-0.8,0.1-1.2,0.3c-0.4,0.2-0.7,0.5-0.9,0.9c-0.2,0.4-0.3,0.8-0.3,1.2c0,0.7,0.2,1.2,0.7,1.7c0.5,0.5,1,0.7,1.6,0.7
			c0.4,0,0.8-0.1,1.2-0.3s0.7-0.5,0.9-0.9c0.2-0.4,0.3-0.8,0.3-1.2c0-0.4-0.1-0.8-0.3-1.2s-0.5-0.6-0.9-0.9
			C25.1,58.6,24.7,58.5,24.3,58.5z"/>
		<path class="st4" d="M28.5,63.6v-5.5h0.1l3.7,4.2v-4.2h0.5v5.5h-0.1l-3.7-4.2v4.2H28.5z"/>
		<path class="st4" d="M34.1,60.3h3V61h-3V60.3z"/>
		<path class="st4" d="M38.7,63.6v-7.9h0.2l5.3,6.1v-6.1h0.8v7.9h-0.2l-5.2-6v6H38.7z"/>
		<path class="st4" d="M46.9,58.1h3.2v0.5h-2.6v1.7h2.6v0.5h-2.6v2.2h2.6v0.5h-3.1V58.1z"/>
		<path class="st4" d="M51,58.1h0.6l1.1,4l1.6-4h0.1l1.6,4l1.1-4h0.6L56,63.6h-0.1l-1.6-4.2l-1.7,4.2h-0.1L51,58.1z"/>
		<path class="st4" d="M58.6,60.3h3V61h-3V60.3z"/>
		<path class="st4" d="M63.2,55.7h4.5v0.8H64v2.5h3.7v0.8H64v3.1h3.7v0.8h-4.5V55.7z"/>
		<path class="st4" d="M69.1,63.6v-5.5h0.1l3.7,4.2v-4.2h0.5v5.5h-0.1l-3.7-4.2v4.2H69.1z"/>
		<path class="st4" d="M75,58.1h3.2v0.5h-2.6v1.7h2.6v0.5h-2.6v2.2h2.6v0.5H75V58.1z"/>
		<path class="st4" d="M79.4,58.1h1.1c0.6,0,1,0,1.2,0.1c0.3,0.1,0.6,0.2,0.8,0.5c0.2,0.2,0.3,0.6,0.3,0.9c0,0.3-0.1,0.6-0.2,0.8
			s-0.3,0.4-0.6,0.5C81.8,61,81.4,61,81,61l2,2.6h-0.7l-2-2.6H80v2.6h-0.6V58.1z M80,58.6v1.9l1,0c0.4,0,0.6,0,0.8-0.1
			c0.2-0.1,0.3-0.2,0.4-0.3c0.1-0.2,0.1-0.3,0.1-0.5c0-0.2-0.1-0.4-0.2-0.5s-0.2-0.3-0.4-0.3s-0.4-0.1-0.8-0.1H80z"/>
		<path class="st4" d="M89.6,59l-0.4,0.4c-0.3-0.3-0.6-0.5-1-0.7s-0.7-0.2-1.1-0.2c-0.4,0-0.8,0.1-1.2,0.3c-0.4,0.2-0.7,0.5-0.9,0.9
			c-0.2,0.4-0.3,0.8-0.3,1.2c0,0.4,0.1,0.8,0.3,1.2c0.2,0.4,0.5,0.7,0.9,0.9c0.4,0.2,0.8,0.3,1.3,0.3c0.6,0,1.1-0.2,1.4-0.5
			c0.4-0.3,0.6-0.7,0.7-1.2h-1.8v-0.5h2.4c0,0.9-0.3,1.5-0.8,2c-0.5,0.5-1.2,0.8-2,0.8c-1,0-1.8-0.3-2.4-1c-0.5-0.5-0.7-1.2-0.7-1.9
			c0-0.5,0.1-1,0.4-1.5s0.6-0.8,1.1-1.1s1-0.4,1.6-0.4c0.5,0,0.9,0.1,1.3,0.3S89.2,58.6,89.6,59z"/>
		<path class="st4" d="M90.8,58.1h0.6l1.4,2.3l1.4-2.3h0.6L93.1,61v2.6h-0.5V61L90.8,58.1z"/>
		<path class="st4" d="M97,62.4c0.2,0,0.3,0.1,0.5,0.2s0.2,0.3,0.2,0.5c0,0.2-0.1,0.3-0.2,0.5s-0.3,0.2-0.5,0.2s-0.3-0.1-0.5-0.2
			s-0.2-0.3-0.2-0.5c0-0.2,0.1-0.3,0.2-0.5S96.8,62.4,97,62.4z"/>
		<path class="st4" d="M104.5,59.1l-0.4,0.3c-0.2-0.3-0.5-0.6-0.9-0.7c-0.3-0.2-0.7-0.2-1.1-0.2c-0.4,0-0.8,0.1-1.2,0.3
			s-0.7,0.5-0.9,0.9c-0.2,0.4-0.3,0.8-0.3,1.2c0,0.7,0.2,1.2,0.7,1.7s1,0.7,1.8,0.7c0.8,0,1.4-0.3,1.9-0.9l0.4,0.3
			c-0.3,0.4-0.6,0.6-1,0.8c-0.4,0.2-0.9,0.3-1.4,0.3c-1,0-1.7-0.3-2.3-1c-0.5-0.5-0.7-1.2-0.7-2c0-0.8,0.3-1.5,0.9-2
			c0.6-0.6,1.3-0.8,2.1-0.8c0.5,0,1,0.1,1.4,0.3S104.3,58.7,104.5,59.1z"/>
		<path class="st4" d="M108.5,57.9c0.8,0,1.5,0.3,2.1,0.8c0.6,0.6,0.8,1.2,0.8,2.1c0,0.8-0.3,1.5-0.8,2.1c-0.6,0.6-1.2,0.8-2.1,0.8
			c-0.8,0-1.5-0.3-2.1-0.8c-0.6-0.6-0.8-1.2-0.8-2c0-0.5,0.1-1,0.4-1.5c0.3-0.5,0.6-0.8,1.1-1.1S108,57.9,108.5,57.9z M108.5,58.5
			c-0.4,0-0.8,0.1-1.2,0.3c-0.4,0.2-0.7,0.5-0.9,0.9c-0.2,0.4-0.3,0.8-0.3,1.2c0,0.7,0.2,1.2,0.7,1.7c0.5,0.5,1,0.7,1.6,0.7
			c0.4,0,0.8-0.1,1.2-0.3s0.7-0.5,0.9-0.9c0.2-0.4,0.3-0.8,0.3-1.2c0-0.4-0.1-0.8-0.3-1.2s-0.5-0.6-0.9-0.9
			C109.4,58.6,109,58.5,108.5,58.5z"/>
		<path class="st4" d="M112.6,63.6l0.8-5.5h0.1l2.2,4.5l2.2-4.5h0.1l0.8,5.5h-0.5l-0.5-4l-2,4h-0.1l-2-4l-0.5,4H112.6z"/>
	</g>
	<g>
	</g>
	<g>
	</g>
	<g>
	</g>
	<g>
	</g>
	<g>
	</g>
	<g>
	</g>
	<g>
	</g>
	<g>
	</g>
	<g>
	</g>
	<g>
	</g>
	<g>
	</g>
	<g>
	</g>
	<g>
	</g>
	<g>
	</g>
	<g>
	</g>
</g>
</svg>
